<svg xmlns="http://www.w3.org/2000/svg" xmlns:xlink="http://www.w3.org/1999/xlink" id="emTZkow5UOS1" shape-rendering="geometricPrecision" text-rendering="geometricPrecision" viewBox="0 0 900 670"><defs><path id="reuse-0" fill="#cfcfcf" stroke="#3f5787" stroke-width="0" d="M842.961803,663.855902c-1.475096,1.652641-1.002156,34.5481-.480878,34.566422c0,0,3.330548,0,5.210407,0c1.467976,0,42.238877,1.421814,42.238877,1.421814-.651217,2.285586,26.502878,4.58592,34.027095,3.719703.971907.017264,8.518309.11611,11.26401,0c2.439903,0,10.570819-.568619,11.970819-.568619c1.14,0,9.437514-.50711,9.318603-.517721c0,0,11.038959-.747909,11.038959-.747909s.07531-10.667608-1.146905-12.783955c-1.07632-1.863721-4.605437-4.272447-6.379658-4.587619-1.756117-.311956-9.042038-.996646-10.823915-1.075223-24.727036-1.090412-52.307517-14.374608-59.269008-19.930294-.786142-.627388-10.717293,9.65486-23.582908,9.185566-11.32471-.013117-20.546236-9.278128-23.385498-8.682165Z"/><path id="reuse-1" fill="#aeaeae" stroke="#3f5787" stroke-width="0" d="M844.019084,700.364215c47.236178,1.478128,53.949329,1.407398,62.386827,4.54791c10.840813,2.722897,59.606931-.632997,61.011418-.747909c1.53008-.125188,2.621731-.713051,2.621731,1.30516c0,2.838823.847103,11.310432,0,11.437186-6.393762.95671-10.696153,2.065326-20.068072,2.032208-24.243209-.085669-56.573241.511936-80.811192-.000001-7.499628-.158402-25.034553-.322461-25.160712-1.138095-.145541-.940938-.900727-17.436459.02-17.436459Z"/><path id="reuse-2" fill="#00c795" stroke="#3f5787" stroke-width="0" d="M931.447504,688.886449c-.446074.995407.314383,2.440809.655266,3.476963.38233,1.162134,1.522745,2.313247,2.558297,2.812092c7.12149,3.430559,17.566517-.491979,22.117734-1.593852c1.680622-.406887,6.417797-3.105334,6.417797-3.105334.097229-.324122,1.532621-1.644227.957273-2.370058-.661228-.834174-2.636708-1.293619-2.636708-1.293619l-6.412144-.807866-5.025022-.267356-7.65677-.653017-5.70788-.895194c0,0-4.401949,2.765012-5.267843,4.697241Z"/><path id="reuse-3" fill="#d8d8d8" stroke="#3f5787" stroke-width="0" d="M887.378098,666.219692c0,0-1.088173-.831769-.928375-1.412565.512344-1.86214,4.974526-4.086467,4.974526-4.086467s-.000001,0-.000001,0c1.195819-.661395,2.98084-.498819,4.107668,0c2.797548,1.238406,6.856057,7.549412,6.856057,7.549412v1.617728c-.615793.076974-9.048563-4.559373-10.963724-5.080674-1.969012-.535959-3.330587.546259-4.046151,1.412566Z"/><path id="reuse-4" fill="#aeaeae" stroke="#3f5787" stroke-width="0" d="M887.732286,666.29053q2.552604-2.219673,3.691963-3.115242c.680608-.534977,1.632318-1.189868,2.329217-1.703443.304298-.22425,1.684679-.751191,1.684679-.751191.212395-.242737-1.788019-.577875-2.463891-.366309-.746706.233739-1.689734.700923-2.373053,1.082079-.625302.348794-1.423281.881514-1.983448,1.327467-.285345.227165-.656082.54951-.885468.833072-.343987.425229-.985276,1.014114-.944321,1.559522.033151.441479.944322,1.134045.944322,1.134045Z"/><path id="reuse-5" fill="#00c795" stroke="#3f5787" stroke-width="0" d="M844.014495,675.101378c21.479418,9.264032,54.460019,15.940306,58.373478,13.785067c2.002703-1.102938,2.830449-2.983677,2.10101-8.567502c1.410447.741065,18.128985,16.260004-1.34869,14.717218-16.796042-1.330379-43.028379-10.399059-59.125798-18.092631v-1.842152Z"/><path id="reuse-6" fill="#e8e8e8" stroke="#3f5787" stroke-width="0" d="M886.652869,668.766883c1.268622,2.976768,3.612457,4.950456,4.990475,5.7934c1.776857,1.086917,4.807274.893827,6.737834,1.675847c1.358666.55036,2.86889,1.898737,4.225887,2.453196c1.83059.747966,4.583296.819084,6.387056,1.629617c1.889965.84927,3.839639,3.000916,5.720451,3.870267c1.574287.727669,3.949377.930357,5.569913,1.54821c1.998903.76211,4.358768,2.502129,6.397873,3.149025c1.917665.60837,3.783054-.115629,5.398458,0c1.728773.123744,3.487588,2.925275,5.718419.822852c1.171-1.103597,1.593725-5.113016,1.593725-5.113016l-12.710602-3.182303-10.08606-3.296122-10.572163-4.290339-4.177568-1.822795c.149556-.085461-6.204394-2.819943-9.5-4.371884-.717318-.337794-2.791303-.648472-3.072952-.278528c0,0-2.6048,1.412566-2.620746,1.412573Z"/><path id="reuse-7" fill="#aeaeae" stroke="#3f5787" stroke-width="0" d="M854.752234,671.393878c0,0-.922401,1.515707-1.559049,1.876963-1.374047.779682-3.951809,1.007283-5.287785,1.850537-1.743991,1.100788-4.195132,7.389359-4.195132,7.389359-.080709-2.218756.167509-8.520225.401815-12.602938c0,.786079-.215108-2.476252.343761-3.597271.261635-.524805,1.91218.405454,1.91218.405454c1.06601.508045,3.198469,1.731902,4.324855,2.43273q4.059355,2.312744,4.059355,2.245166Z"/><path id="reuse-8" fill="#00c795" stroke="#3f5787" stroke-width="0" d="M843.652159,712.514077q.109863-.02,7.885811,0v-1h-8.075934c-.140389.72871.111376,1.016085.190123,1Z"/><path id="reuse-9" fill="#00c795" stroke="#3f5787" stroke-width="0" d="M843.652159,712.514077q.109863-.02,11.99045,0v-1h-12.180573c-.140389.72871.111376,1.016085.190123,1Z"/></defs><style>@keyframes emTZkow5UOS37__m{0%,25%,50%,75%,to{d:path(&quot;M407.590783,612.983198C403.138505,611.174252,415.416062,564.774148,411.018672,550.131923C407.695144,539.065393,370.240871,545.584191,366.806068,534.551689C363.117963,522.705587,383.444384,508.183075,395.791518,502.539594C403.590813,498.974785,416.301183,497.104093,424.820264,496.12323C435.879152,494.849941,444.288437,492.172058,451.811469,496.12323C456.900467,498.796023,456.365117,502.680934,456.924568,509.703785C458.037601,523.675811,450.492442,534.657431,446.244734,550.131923C439.026747,576.427207,434.678909,607.635129,437.057313,612.223987C431.163006,617.128792,416.031674,621.965561,407.590783,612.983198Z&quot;)}12.5%,37.5%,62.5%,87.5%{d:path(&quot;M408.565885,613.483599C404.113606,611.674653,415.416062,564.774148,411.018672,550.131923C407.695144,539.065393,370.240871,545.584191,366.806068,534.551689C363.117963,522.705587,383.444384,508.183075,395.791518,502.539594C403.590813,498.974785,416.301183,497.104093,424.820264,496.12323C435.879152,494.849941,443.838557,492.172058,451.361589,496.12323C456.450587,498.796023,455.265145,502.967729,455.824596,509.99058C456.937629,523.962606,450.738356,534.727044,446.244734,550.131923C438.318107,577.305714,437.450972,608.193541,440.014663,611.446961C434.120356,616.351766,417.006775,622.465962,408.565885,613.483599Z&quot;)}}@keyframes emTZkow5UOS38_to__to{0%,25%,50%,75%,to{transform:translate(457.854px,621.894px)}12.5%,37.5%,62.5%,87.5%{transform:translate(457.854px,627.894px)}}@keyframes emTZkow5UOS38_tr__tr{0%,25%,50%,75%,to{transform:rotate(-2.047334deg)}12.5%,37.5%,62.5%,87.5%{transform:rotate(5.185734deg)}}@keyframes emTZkow5UOS91__sz{0%,18.75%,81.25%,to{width:0;height:6.58962px}31.25%,68.75%{width:34.22px;height:6.58962px}}@keyframes emTZkow5UOS92__sz{0%,12.5%,87.5%,to{width:0;height:6.58962px}25%,75%{width:34.22px;height:6.58962px}}@keyframes emTZkow5UOS93__sz{0%,6.25%,93.75%,to{width:0;height:9.642048px}18.75%,81.25%{width:47.809992px;height:9.642048px}}@keyframes emTZkow5UOS94_ts__ts{0%,6.25%,93.75%,to{transform:translate(465.00434px,367.542691px) scale(0,0)}18.75%,81.25%{transform:translate(465.00434px,367.542691px) scale(1,1)}}@keyframes emTZkow5UOS95__sz{0%,18.75%,81.25%,to{width:0;height:6.58962px}31.25%,68.75%{width:34.22px;height:6.58962px}}@keyframes emTZkow5UOS96__sz{0%,12.5%,87.5%,to{width:0;height:6.58962px}25%,75%{width:34.22px;height:6.58962px}}@keyframes emTZkow5UOS97__sz{0%,6.25%,93.75%,to{width:0;height:9.642048px}18.75%,81.25%{width:47.81px;height:9.642048px}}@keyframes emTZkow5UOS98_ts__ts{0%,6.25%,93.75%,to{transform:translate(334.437026px,367.542691px) scale(0,0)}18.75%,81.25%{transform:translate(334.437026px,367.542691px) scale(1,1)}}@keyframes emTZkow5UOS99__sz{0%,12.5%,87.5%,to{width:0;height:9.845627px}25%,75%{width:167.84px;height:9.845627px}}@keyframes emTZkow5UOS100__sz{0%,6.25%,93.75%,to{width:0;height:10.606253px}18.75%,81.25%{width:186.25px;height:10.606253px}}@keyframes emTZkow5UOS101_ts__ts{0%,6.25%,93.75%,to{transform:translate(544.949219px,298.523896px) scale(0,0)}18.75%,81.25%{transform:translate(544.949219px,298.523896px) scale(1,1)}}@keyframes emTZkow5UOS105__m{0%,to{d:path(&quot;M707.463614,421.244546C707.463614,416.445728,707.463614,413.139114,707.463614,411.698Q707.992475,404.54512,707.992475,401.583091C708.511565,399.124604,708.87995,395.093976,709.334467,394.184943C709.788984,393.27591,712.727956,389.285287,717.118021,381.201716C718.519417,378.621276,720.849606,375.062047,722.378629,372.555121C723.880162,370.093266,727.478198,367.784428,727.478198,366.914424C727.478198,366.468969,724.753762,363.748566,723.970973,363.748566C723.438841,363.748566,718.960449,366.852553,717.601138,369.116533C715.243821,373.042729,713.595732,376.380683,711.535334,380.473324C709.84348,383.833912,706.001982,391.733154,706.001982,391.733154C706.001982,391.733154,703.208501,384.286875,700.871282,381.201716C698.502795,378.075286,695.500725,374.651648,692.185779,372.555121C688.875414,370.461492,681.592743,366.536887,680.893872,366.914424C680.262835,367.255316,681.084202,372.624056,681.347441,373.307605C681.599163,373.961247,688.47197,375.681971,691.753912,378.099167C693.646971,379.493431,695.733834,382.252127,697.090765,384.172122C698.905179,386.739435,699.917551,389.88995,700.871282,392.885546C701.526205,394.94262,700.871282,399.287509,700.871282,401.583091C700.871282,405.031465,700.392263,411.698,700.392263,411.698L700.392262,421.244529L707.463614,421.244546Z&quot;)}50%{d:path(&quot;M707.463614,421.244546C707.463614,416.445728,709.728484,412.770057,709.728484,411.328943Q710.639243,404.348569,711.440607,402.060943C711.959697,399.602456,712.713894,395.893053,713.168411,394.98402C713.622928,394.074987,714.624126,390.205882,719.014191,382.122311C720.415587,379.541871,722.952038,375.814531,724.481061,373.307605C725.982594,370.84575,729.13559,367.784428,729.13559,366.914424C729.13559,366.468969,726.506226,362.599349,725.723437,362.599349C725.191305,362.599349,721.805813,367.195034,720.446502,369.459014C718.089185,373.38521,715.755775,376.691359,713.695377,380.784C712.003523,384.144588,708.181608,392.094441,708.181608,392.094441C708.181608,392.094441,705.691647,383.558937,703.354428,380.473778C700.985943,377.347348,696.094224,373.094937,692.779278,370.99841C689.468913,368.904781,686.34896,366.536887,685.650089,366.914424C685.019052,367.255316,684.563919,371.871572,684.827158,372.555121C685.07888,373.208763,689.497336,374.761772,692.779278,377.178968C694.672337,378.573232,697.123152,381.937305,698.480083,383.8573C700.294497,386.424613,702.400698,390.509083,703.354428,393.504679C704.009352,395.561753,704.257469,399.765361,704.257469,402.060943C704.257469,405.509317,703.354427,411.328943,703.354427,411.328943L700.392262,421.244529L707.463614,421.244546Z&quot;)}}@keyframes emTZkow5UOS113_to__to{0%{transform:translate(181.748px,392.886px)}50%,to{transform:translate(181.748px,346.886px)}}@keyframes emTZkow5UOS113_c_o{0%,50%,to{opacity:0}12.5%,37.5%{opacity:1}}@keyframes emTZkow5UOS115_to__to{0%{transform:translate(193.797px,386.009px)}50%,to{transform:translate(193.797px,347.009px)}}@keyframes emTZkow5UOS115_c_o{0%,50%,to{opacity:0}12.5%,37.5%{opacity:1}}@keyframes emTZkow5UOS117_f_p{0%,to{fill:#f2ff5a}50%{fill:#00c795}}@keyframes emTZkow5UOS127_tr__tr{0%,25%,50%,75%,to{transform:translate(344.14px,296.693px) rotate(-4.262774deg)}12.5%,37.5%,62.5%,87.5%{transform:translate(344.14px,296.693px) rotate(11.911905deg)}}@keyframes emTZkow5UOS150_tr__tr{0%{transform:translate(135.33781px,207.03926px) rotate(720deg);animation-timing-function:cubic-bezier(.415,.08,.115,.955)}to{transform:translate(135.33781px,207.03926px) rotate(570.38961deg)}}@keyframes emTZkow5UOS150_f_p{0%,to{fill:#d2dbed}}@keyframes emTZkow5UOS151_tr__tr{0%{transform:translate(11.12px,29.9px) rotate(-720deg);animation-timing-function:cubic-bezier(.415,.08,.115,.955)}to{transform:translate(11.12px,29.9px) rotate(-570.38961deg)}}</style><defs><linearGradient id="emTZkow5UOS144-fill" x1=".5" x2=".5" y1="0" y2="1" gradientUnits="objectBoundingBox" spreadMethod="pad"><stop id="emTZkow5UOS144-fill-0" offset="0%" stop-color="rgba(255,255,255,0)"/><stop id="emTZkow5UOS144-fill-1" offset="100%" stop-color="#010022"/></linearGradient></defs><path fill="#424242" stroke="#3f5787" stroke-width="0" d="M372.107469,574.231489l-2.43529,36.28389c-5.75049,6.011793-22.486454,5.562303-28.771293-1.122206l3.959731-35.161681c12.785215.003958,27.118503.313833,27.246852-.000003Z"/><g transform="matrix(.8456 0 0 .8456 -378.452 43.573)"><use xlink:href="#reuse-0" stroke-width="0" transform="translate(1.534 2.494)"/><use xlink:href="#reuse-1" stroke-width="0" transform="translate(-.362 .02)"/><use xlink:href="#reuse-2" stroke-width="0"/><use xlink:href="#reuse-3" stroke-width="0" transform="translate(.22 2.547)"/><use xlink:href="#reuse-4" stroke-width="0" transform="translate(-.135 2.476)"/><use xlink:href="#reuse-5" stroke-width="0" transform="translate(0 3)"/><use xlink:href="#reuse-6" stroke-width="0" transform="translate(.022)"/><use xlink:href="#reuse-7" stroke-width="0" transform="translate(0 -.02)"/><ellipse fill="#bfbfbf" stroke-width="0" rx=".933" ry=".904" transform="translate(902.607 675.705)"/><ellipse fill="#bfbfbf" stroke-width="0" rx=".933" ry=".904" transform="translate(924.7 684.189)"/><ellipse fill="#bfbfbf" stroke-width="0" rx=".933" ry=".904" transform="translate(933.728 686.948)"/><ellipse fill="#bfbfbf" stroke-width="0" rx=".933" ry=".904" transform="translate(910.067 678.689)"/><ellipse fill="#bfbfbf" stroke-width="0" rx=".933" ry=".904" transform="translate(917.456 681.587)"/><ellipse fill="#bfbfbf" stroke-width="0" rx=".933" ry=".904" transform="translate(895.303 672.278)"/><path fill="none" stroke="#00c795" stroke-width="2.048" d="M936.299141,680.67979l-.792372,2.685278-2.421201-1.815567-2.004685-2.326222-4.490282,1.456511-2.405274-3.54096-4.896761,1.004017c0,0-.798886-3.231213-1.936672-3.839026-1.416204-.756546-5.312067.65295-5.312067.65295l-2.391076-3.036199-4.870393.541097v-3.7275" transform="translate(-1.638 2.64)"/><text fill="#00c795" stroke-width="0" dx="0" dy="0" font-family="&quot;emTZkow5UOS1:::Roboto&quot;" font-size="43.6" font-weight="700" transform="matrix(.16466 0 0 .10632 856.277 713.51)"><tspan y="0"><![CDATA[

AIR

]]></tspan></text><use xlink:href="#reuse-8" stroke-width="0" transform="translate(24.481 -.12)"/><use xlink:href="#reuse-9" stroke-width="0" transform="translate(-.267 -.12)"/><circle r=".737" fill="#fff" stroke-width="0" transform="translate(891.25 699.648)"/><circle r=".737" fill="#fff" stroke-width="0" transform="translate(911.001 701.121)"/><circle r=".737" fill="#fff" stroke-width="0" transform="matrix(.59083 0 0 .59083 936.142 691.9)"/><circle r=".737" fill="#fff" stroke-width="0" transform="matrix(.59083 0 0 .59083 938.042 692.77)"/><circle r=".737" fill="#fff" stroke-width="0" transform="matrix(.59083 0 0 .59083 942.135 686.44)"/><circle r=".737" fill="#fff" stroke-width="0" transform="matrix(.59083 0 0 .59083 941.699 688.542)"/><circle r=".737" fill="#fff" stroke-width="0" transform="matrix(.59083 0 0 .59083 940.379 690.804)"/><circle r=".737" fill="#fff" stroke-width="0" transform="matrix(.59083 0 0 .59083 943.68 691.029)"/><circle r=".737" fill="#fff" stroke-width="0" transform="matrix(.59083 0 0 .59083 942.135 692.77)"/><circle r=".737" fill="#fff" stroke-width="0" transform="matrix(.59083 0 0 .59083 944.55 688.977)"/><circle r=".737" fill="#fff" stroke-width="0" transform="matrix(.59083 0 0 .59083 944.985 686.513)"/><circle r=".737" fill="#fff" stroke-width="0" transform="matrix(.59083 0 0 .59083 947.365 686.513)"/><circle r=".737" fill="#fff" stroke-width="0" transform="matrix(.59083 0 0 .59083 946.93 688.977)"/><circle r=".737" fill="#fff" stroke-width="0" transform="matrix(.59083 0 0 .59083 946.06 691.239)"/></g><path fill="#424242" stroke="#3f5787" stroke-width="0" d="M407.590783,612.983198c-4.452278-1.808946,7.825279-48.20905,3.427889-62.851275-3.323528-11.06653-40.777801-4.547732-44.212604-15.580234-3.688105-11.846102,16.638316-26.368614,28.98545-32.012095c7.799295-3.564809,20.509665-5.435501,29.028746-6.416364c11.058888-1.273289,19.468173-3.951172,26.991205,0c5.088998,2.672793,4.553648,6.557704,5.113099,13.580555c1.113033,13.972026-6.432126,24.953646-10.679834,40.428138-7.217987,26.295284-11.565825,57.503206-9.187421,62.092064-5.894307,4.904805-21.025639,9.741574-29.46653.759211Z" style="animation:emTZkow5UOS37__m 1600ms linear infinite normal forwards" transform="translate(.268 -.168)"/><g style="animation:emTZkow5UOS38_to__to 1600ms linear infinite normal forwards" transform="translate(457.854 621.894)"><g style="animation:emTZkow5UOS38_tr__tr 1600ms linear infinite normal forwards" transform="rotate(-2.047)"><g><g transform="rotate(-4.306 0 0)"><g transform="matrix(.88216 0 0 .88215 -799.765 -609.538)"><use xlink:href="#reuse-0" stroke-width="0" transform="translate(1.534 2.494)"/><use xlink:href="#reuse-1" stroke-width="0" transform="translate(-.362 .02)"/><use xlink:href="#reuse-2" stroke-width="0"/><use xlink:href="#reuse-3" stroke-width="0" transform="translate(.22 2.547)"/><use xlink:href="#reuse-4" stroke-width="0" transform="translate(-.135 2.476)"/><use xlink:href="#reuse-5" stroke-width="0" transform="translate(0 3)"/><use xlink:href="#reuse-6" stroke-width="0" transform="translate(.022)"/><use xlink:href="#reuse-7" stroke-width="0" transform="translate(0 -.02)"/><ellipse fill="#bfbfbf" stroke-width="0" rx=".933" ry=".904" transform="translate(902.607 675.705)"/><ellipse fill="#bfbfbf" stroke-width="0" rx=".933" ry=".904" transform="translate(924.7 684.189)"/><ellipse fill="#bfbfbf" stroke-width="0" rx=".933" ry=".904" transform="translate(933.728 686.948)"/><ellipse fill="#bfbfbf" stroke-width="0" rx=".933" ry=".904" transform="translate(910.067 678.689)"/><ellipse fill="#bfbfbf" stroke-width="0" rx=".933" ry=".904" transform="translate(917.456 681.587)"/><ellipse fill="#bfbfbf" stroke-width="0" rx=".933" ry=".904" transform="translate(895.303 672.278)"/><path fill="none" stroke="#00c795" stroke-width="2.048" d="M936.299141,680.67979l-.792372,2.685278-2.421201-1.815567-2.004685-2.326222-4.490282,1.456511-2.405274-3.54096-4.896761,1.004017-1.936672-3.839026-5.312067.65295-2.391076-3.036199-4.870393.541097v-3.7275" transform="translate(-1.638 2.64)"/><text fill="#00c795" stroke-width="0" dx="0" dy="0" font-family="&quot;emTZkow5UOS1:::Roboto&quot;" font-size="43.6" font-weight="700" transform="matrix(.16466 0 0 .10632 856.277 713.51)"><tspan y="0"><![CDATA[

AIR

]]></tspan></text><use xlink:href="#reuse-9" stroke-width="0" transform="translate(-.267 -.12)"/><use xlink:href="#reuse-8" stroke-width="0" transform="translate(25.664 -.12)"/><circle r=".737" fill="#fff" stroke-width="0" transform="translate(891.25 699.648)"/><circle r=".737" fill="#fff" stroke-width="0" transform="translate(911.001 701.121)"/><circle r=".737" fill="#fff" stroke-width="0" transform="matrix(.59083 0 0 .59083 936.142 691.9)"/><circle r=".737" fill="#fff" stroke-width="0" transform="matrix(.59083 0 0 .59083 938.042 692.77)"/><circle r=".737" fill="#fff" stroke-width="0" transform="matrix(.59083 0 0 .59083 942.135 686.44)"/><circle r=".737" fill="#fff" stroke-width="0" transform="matrix(.59083 0 0 .59083 941.699 688.542)"/><circle r=".737" fill="#fff" stroke-width="0" transform="matrix(.59083 0 0 .59083 940.379 690.804)"/><circle r=".737" fill="#fff" stroke-width="0" transform="matrix(.59083 0 0 .59083 943.68 691.029)"/><circle r=".737" fill="#fff" stroke-width="0" transform="matrix(.59083 0 0 .59083 942.135 692.77)"/><circle r=".737" fill="#fff" stroke-width="0" transform="matrix(.59083 0 0 .59083 944.55 688.977)"/><circle r=".737" fill="#fff" stroke-width="0" transform="matrix(.59083 0 0 .59083 944.985 686.513)"/><circle r=".737" fill="#fff" stroke-width="0" transform="matrix(.59083 0 0 .59083 947.365 686.513)"/><circle r=".737" fill="#fff" stroke-width="0" transform="matrix(.59083 0 0 .59083 946.93 688.977)"/><circle r=".737" fill="#fff" stroke-width="0" transform="matrix(.59083 0 0 .59083 946.06 691.239)"/></g></g></g></g></g><g><rect width="16.18" height="187.669" fill="#cdcdcd" stroke-width="0" rx="4" ry="4" transform="matrix(1 0 0 1.01484 114.181 474.354)"/><rect width="16.18" height="187.669" fill="#656565" stroke-width="0" rx="4" ry="4" transform="matrix(1 0 0 1.01484 106.265 474.354)"/><rect width="16.18" height="187.669" fill="#cdcdcd" stroke-width="0" rx="4" ry="4" transform="matrix(1 0 0 1.01484 206.978 470.267)"/><rect width="16.18" height="187.669" fill="#656565" stroke-width="0" rx="4" ry="4" transform="matrix(1 0 0 1.01484 199.061 470.267)"/><rect width="16.18" height="187.669" fill="#cdcdcd" stroke-width="0" rx="4" ry="4" transform="matrix(1 0 0 1.01484 745.978 468.267)"/><rect width="16.18" height="187.669" fill="#656565" stroke-width="0" rx="4" ry="4" transform="matrix(1 0 0 1.01484 738.061 468.224)"/><rect width="16.18" height="187.669" fill="#cdcdcd" stroke-width="0" rx="4" ry="4" transform="matrix(1 0 0 1.01484 653.355 472.311)"/><rect width="16.18" height="187.669" fill="#656565" stroke-width="0" rx="4" ry="4" transform="matrix(1 0 0 1.01484 645.265 472.311)"/><rect width="635.085" height="13.742" fill="#656565" stroke-width="0" rx="4" ry="4" transform="matrix(.9216 0 0 1 94.032 463.396)"/><rect width="155" height="15.282" fill="#cdcdcd" stroke-width="0" rx="4" ry="4" transform="matrix(.75825 0 0 .89926 658.564 463.396)"/></g><g transform="translate(-16.172)"><rect width="37.77" height="42.152" fill="#656565" stroke-width="0" rx="5" ry="5" transform="translate(434.865 421.245)"/><rect width="37.77" height="42.152" fill="#cdcdcd" stroke-width="0" rx="5" ry="5" transform="translate(430.624 421.245)"/><rect width="318.118" height="174.452" fill="#656565" stroke-width="0" rx="10" ry="10" transform="translate(290.45 247.793)"/><rect width="318.118" height="174.452" fill="#cdcdcd" stroke-width="0" rx="10" ry="10" transform="translate(279.806 247.793)"/><rect width="318.118" height="174.452" fill="#fff" stroke-width="0" rx="10" ry="10" transform="matrix(.92177 0 0 .83206 292.25 262.441)"/><rect width="0" height="6.59" fill="#cdcdcd" stroke-width="0" rx="2" ry="2" style="animation:emTZkow5UOS91__sz 1600ms linear infinite normal forwards" transform="translate(499.33 373.884)"/><rect width="0" height="6.59" fill="#cdcdcd" stroke-width="0" rx="2" ry="2" style="animation:emTZkow5UOS92__sz 1600ms linear infinite normal forwards" transform="translate(499.33 359.305)"/><rect width="0" height="9.642" fill="#cdcdcd" stroke-width="0" rx="4" ry="4" style="animation:emTZkow5UOS93__sz 1600ms linear infinite normal forwards" transform="translate(499.33 341.432)"/><g style="animation:emTZkow5UOS94_ts__ts 1600ms linear infinite normal forwards" transform="matrix(0 0 0 0 465.004 367.543)"><rect width="53.793" height="65.049" fill="#cdcdcd" stroke-width="0" rx="10" ry="10" transform="translate(-26.896 -32.524)"/></g><rect width="0" height="6.59" fill="#cdcdcd" stroke-width="0" rx="2" ry="2" style="animation:emTZkow5UOS95__sz 1600ms linear infinite normal forwards" transform="translate(369.46 375.533)"/><rect width="0" height="6.59" fill="#cdcdcd" stroke-width="0" rx="2" ry="2" style="animation:emTZkow5UOS96__sz 1600ms linear infinite normal forwards" transform="translate(369.46 360.953)"/><rect width="0" height="9.642" fill="#cdcdcd" stroke-width="0" rx="4" ry="4" style="animation:emTZkow5UOS97__sz 1600ms linear infinite normal forwards" transform="translate(369.46 343.08)"/><g style="animation:emTZkow5UOS98_ts__ts 1600ms linear infinite normal forwards" transform="matrix(0 0 0 0 334.437 367.543)"><rect width="53.793" height="65.049" fill="#cdcdcd" stroke-width="0" rx="10" ry="10" transform="translate(-26.896 -32.524)"/></g><rect width="0" height="9.846" fill="#cdcdcd" stroke-width="0" rx="4" ry="4" style="animation:emTZkow5UOS99__sz 1600ms linear infinite normal forwards" transform="translate(305.65 298.524)"/><rect width="0" height="10.606" fill="#cdcdcd" stroke-width="0" rx="4" ry="4" style="animation:emTZkow5UOS100__sz 1600ms linear infinite normal forwards" transform="matrix(.9912 0 0 1 306.404 279.447)"/><g style="animation:emTZkow5UOS101_ts__ts 1600ms linear infinite normal forwards" transform="matrix(0 0 0 0 544.95 298.524)"><rect width="53.793" height="51.391" fill="#cdcdcd" stroke-width="0" rx="10" ry="10" transform="translate(-26.896 -25.695)"/></g></g><g transform="translate(.608)"><rect width="84.707" height="13.268" fill="#656565" stroke-width="0" rx="4" ry="4" transform="matrix(.63829 0 0 .6259 673.359 421.245)"/><rect width="70.905" height="66.684" fill="#656565" stroke-width="0" rx="10" ry="10" transform="matrix(.61686 0 0 .61572 678.523 422.338)"/><path fill="#00c795" stroke="#3f5787" stroke-width="0" d="M707.463614,421.244546c0-4.798818,0-8.105432,0-9.546546q.528861-7.15288.528861-10.114909c.51909-2.458487.887475-6.489115,1.341992-7.398148s3.393489-4.899656,7.783554-12.983227c1.401396-2.58044,3.731585-6.139669,5.260608-8.646595c1.501533-2.461855,5.099569-4.770693,5.099569-5.640697c0-.445455-2.724436-3.165858-3.507225-3.165858-.532132,0-5.010524,3.103987-6.369835,5.367967-2.357317,3.926196-4.005406,7.26415-6.065804,11.356791-1.691854,3.360588-5.533352,11.25983-5.533352,11.25983s-2.793481-7.446279-5.1307-10.531438c-2.368487-3.12643-5.370557-6.550068-8.685503-8.646595-3.310365-2.093629-10.593036-6.018234-11.291907-5.640697-.631037.340892.19033,5.709632.453569,6.393181.251722.653642,7.124529,2.374366,10.406471,4.791562c1.893059,1.394264,3.979922,4.15296,5.336853,6.072955c1.814414,2.567313,2.826786,5.717828,3.780517,8.713424.654923,2.057074,0,6.401963,0,8.697545c0,3.448374-.479019,10.114909-.479019,10.114909l-.000001,9.546529l7.071352.000017Z" style="animation:emTZkow5UOS105__m 1600ms linear infinite normal forwards" transform="translate(-1.71)"/></g><g><rect width="23.329" height="103.396" fill="#656565" stroke-width="0" rx="6" ry="6" transform="matrix(.86367 0 0 1 101.771 360)"/><rect width="24.419" height="82.613" fill="#00c795" stroke-width="0" rx="6" ry="6" transform="matrix(.84192 0 0 1 121.44 380.784)"/><rect width="23.871" height="91.067" fill="#cdcdcd" stroke-width="0" rx="6" ry="6" transform="matrix(.7554 0 0 1 141.849 372.329)"/></g><g><rect width="35.408" height="51.698" fill="#656565" stroke-width="0" rx="8" ry="8" transform="matrix(1.081 0 0 1 168.875 411.698)"/><path fill="#00c795" stroke="#3f5787" stroke-width="0" d="M871.909814,61.422136q55.348393,1.143192,55.348393,57.72155t-55.348393,55.348393l-.000001-16.890195q39.156559-1.795221,39.156559-38.458198t-39.156558-39.867143v-17.854407Z" transform="matrix(.29671 0 0 .26563 -51.557 405.929)"/><g style="animation:emTZkow5UOS113_to__to 1600ms linear infinite normal forwards" transform="translate(181.748 392.886)"><g opacity="0" style="animation:emTZkow5UOS113_c_o 1600ms linear infinite normal forwards"><rect width="4.53" height="28.117" fill="#c6bfbf" stroke-width="0" rx="2" ry="2" transform="translate(-2.265 -14.059)"/></g></g><g style="animation:emTZkow5UOS115_to__to 1600ms linear infinite normal forwards" transform="translate(193.797 386.009)"><g opacity="0" style="animation:emTZkow5UOS115_c_o 1600ms linear infinite normal forwards"><rect width="4.53" height="28.117" fill="#c6bfbf" stroke-width="0" rx="2" ry="2" transform="translate(-2.265 -14.059)"/></g></g></g><path fill="#f2ff5a" stroke-width="0" d="M2-48.14 148.16-48.14 53.041 129.323-52.376 129.722-148.16-48.14 2-48.14z" opacity=".15" style="animation:emTZkow5UOS117_f_p 1600ms linear infinite normal forwards" transform="matrix(-1.33174 -.00497 .00643 -1.72503 447.12 379.555)"/><g><ellipse fill="#00c795" stroke-width="0" rx="21.494" ry="13.016" transform="translate(449.509 157.515)"/><rect width="176.303" height="113.894" fill="#656565" stroke-width="0" rx="25" ry="25" transform="matrix(.8254 0 0 .75676 376.749 71.324)"/><rect width="4.241" height="71.324" fill="#656565" stroke-width="0" rx="0" ry="0" transform="translate(447.388)"/></g><rect width="24.341" height="12.041" fill="#191919" stroke-width="0" rx="6.02" ry="6.02" transform="matrix(.68084 0 0 1 459.906 452.286)"/><g><path fill="#424242" stroke="#3f5787" stroke-width="0" d="M400.437541,367.525492c0,0,19.706978,4.992441,21.653285,13.584346c3.964747,17.502239-.893056,76.535588,1.886318,76.618917l23.590138-4.374578c0,0,8.708864-.533051,10.766933,7.118592c1.991448,7.403957-3.761342,9.966175-3.761342,9.966175-.171618-.171618-53.93425,26.477568-54.02743,9.710327-.157716-28.380088.855854-108.272532.268375-104.583025l-.376277-8.040754Z" transform="translate(-.179 -3.01)"/><path fill="#e3bc9a" stroke="#3f5787" stroke-width="0" d="M450.163831,451.416893c0,0,3.725142-.644792,4.449165-.908142c1.40646-.511574,3.551205.180635,5.022415.455177c1.936079.361291,4.275329,1.977597,5.216197,3.707828.888963,1.63478.357429,3.944543-.372114,5.656422-.689721,1.618435-2.018807,3.236188-3.507752,4.173252-.98285.618554-4.265742.417326-4.265742.417326c1.724559-5.111574-2.633154-12.523475-6.542169-13.501863Z" transform="translate(.92 -.62)"/></g><path fill="#e3bc9a" stroke="#3f5787" stroke-width="0" d="M343.157621,324.525916v5.636414h-15.087662l-.104984-5.636414h15.192646Z" transform="matrix(1.86915 0 0 1 -287.205 9.044)"/><g style="animation:emTZkow5UOS127_tr__tr 1600ms linear infinite normal forwards" transform="rotate(-4.263 4158.07 -4475.092)"><g><g transform="translate(-556.964 -503.368) scale(1.66211)"><path fill="#1b1b1b" stroke="#3f5787" stroke-width="0" d="M66.207622,97.978016c-3.93498-3.586448-3.15729-20.649237-3.15729-22.018718q0-1.369481,5.2716-12.811078c0-2.725061,11.345105-7.425049,16.507346-8.532105c5.611278-1.203353,12.06169-2.219006,28.573296-2.219006c2.788533,1.946229,4.382778,7.244582,4.006744,8.958883-.459944,2.096839-1.801617,4.840727-3.228388,6.155932-7.300904,6.730011-14.72915.058052-20.148603,8.447374-4.638514,7.180427-2.51441,14.174473-5.828175,22.018718-1.49095,3.529331-4.845389,1.616325-8.537115,2.060485-7.332687.882212-13.459415-2.060485-13.459415-2.060485Z" transform="translate(244.868 226.548)"/><path fill="#e3bc9a" stroke="#3f5787" stroke-width="0" d="M114.35462,67.511921c0,.128394,2.2118,1.96442,1.25308,6.586255-.194211.936262-1.929625,2.230568-2.205127,3.146211-.704831,2.342533,1.247224,4.909264.778356,7.310183-.775079,3.968925-1.101142,8.393623-4.221992,10.965275-4.141133,3.412389-15.396877,3.455989-15.396877,3.455989q0,0-6.822832,0l2.493307-13.076935c0,0,1.8622-8.42592,4.329525-10.956351c2.9353-3.010376,11.666687-5.898765,11.666687-5.898765q8.125871-1.724458,8.125873-1.531862Z" transform="translate(244.868 226.548)"/><rect width="13.334" height="21.636" fill="#00c795" stroke-width="0" rx="4" ry="4" transform="matrix(.9946 -.1038 .08665 .83025 336.898 299.071)"/><path fill="#00c795" stroke="#3f5787" stroke-width="0" d="M99.597775,72.523041c0,0-.361399-3.594318-.93741-5.011115-.83558-2.05525-2.418323-4.706826-4.098303-6.155933-1.268226-1.093939-3.47407-1.813724-5.050893-2.378283-1.868701-.669062-6.414503-1.621249-6.414503-1.621249s-4.078481-.404849-5.780101-.070489c-1.757386.345317-3.967817,1.395686-5.498146,2.326139-.962418.585159-4.016398,2.396626-2.89005,2.396626c0,0,5.520162-1.064243,5.520162-1.064243s3.40263-.857383,5.218507-.857384c1.265092-.000001,3.822281.368125,5.162241.857384c1.787706.652744,4.51698,1.519767,5.909408,2.735858.929826.812073,2.583195,2.728123,3.165524,3.831568.466817.884563.927815,2.346096,1.457549,3.626999.220724.533713,0,1.936595,0,1.936595l4.236015-.552473Z" transform="translate(244.868 226.548)"/></g></g></g><g><rect width="189.916" height="282.936" fill="#656565" stroke-width="0" rx="50" ry="50" transform="matrix(.70069 0 0 .69673 267.822 337.423)"/><rect width="189.916" height="282.936" fill="#cdcdcd" stroke-width="0" rx="50" ry="50" transform="matrix(.70069 0 0 .69673 253.611 337.423)"/><rect width="161.494" height="47.102" fill="#656565" stroke-width="0" rx="13" ry="13" transform="matrix(.848 0 0 .8472 279.806 534.326)"/><rect width="161.494" height="47.102" fill="#cdcdcd" stroke-width="0" rx="13" ry="13" transform="matrix(.848 0 0 .8472 253.611 534.326)"/><rect width="15.847" height="58.202" fill="#cdcdcd" stroke-width="0" rx="0" ry="0" transform="translate(312.223 574.232)"/><circle r="9.263" fill="#656565" stroke-width="0" transform="translate(389.63 656.544)"/><circle r="9.263" fill="#656565" stroke-width="0" transform="translate(357.543 655.544)"/><circle r="9.263" fill="#656565" stroke-width="0" transform="translate(251.559 656.544)"/><circle r="9.263" fill="#656565" stroke-width="0" transform="translate(282.07 655.544)"/><rect width="153.046" height="15.847" fill="#cdcdcd" stroke-width="0" rx="4" ry="4" transform="translate(243.623 632.433)"/></g></svg>