<svg width="0" height="0" class="hidden">
    <symbol xmlns="http://www.w3.org/2000/svg" viewBox="0 0 24 24" id="arrow-back">
        <path d="m6.1 13.58 8.15 8.18L12 23.97l-12-12L11.97 0l2.28 2.25-8.14 8.14h17.86v3.2H6.11z" />
    </symbol>
    <symbol xmlns="http://www.w3.org/2000/svg" viewBox="0 0 24 24" id="arrow-forward">
        <path
            d="M17.8 13.56H0v-3.19h17.8L9.67 2.24 11.98 0l11.95 11.95-11.98 11.98-2.28-2.2 8.13-8.17z" />
    </symbol>
    <symbol xmlns="http://www.w3.org/2000/svg" viewBox="0 0 24 24" id="arrow-down">
        <path d="M10.86 0v19.7l-9.29-9.29L0 12l11.99 11.98L23.97 12 22.4 10.4l-9.29 9.3V0h-2.25z" />
    </symbol>
    <symbol xmlns="http://www.w3.org/2000/svg" viewBox="0 0 24 24" id="instagram">
        <path
            d="M12 2.16c3.2 0 3.58.01 4.85.07 3.25.15 4.77 1.7 4.92 4.92.06 1.27.07 1.65.07 4.85 0 3.2-.01 3.58-.07 4.85-.15 3.23-1.66 4.77-4.92 4.92-1.27.06-1.64.07-4.85.07a83 83 0 0 1-4.85-.07c-3.26-.15-4.77-1.7-4.92-4.92A82.98 82.98 0 0 1 2.16 12a84 84 0 0 1 .07-4.85c.15-3.23 1.67-4.77 4.92-4.92A84.4 84.4 0 0 1 12 2.16zM12 0C8.74 0 8.33.01 7.05.07 2.7.27.27 2.7.07 7.05A84.29 84.29 0 0 0 0 12c0 3.26.01 3.67.07 4.95.2 4.36 2.62 6.78 6.98 6.98 1.28.06 1.7.07 4.95.07 3.26 0 3.67-.01 4.95-.07 4.35-.2 6.78-2.62 6.98-6.98.06-1.28.07-1.7.07-4.95 0-3.26-.01-3.67-.07-4.95C23.73 2.7 21.3.27 16.95.07A84.33 84.33 0 0 0 12 0zm0 5.84a6.16 6.16 0 1 0 0 12.32 6.16 6.16 0 0 0 0-12.32zM12 16a4 4 0 1 1 0-8 4 4 0 0 1 0 8zm6.4-11.85a1.44 1.44 0 1 0 0 2.89 1.44 1.44 0 0 0 0-2.89z" />
    </symbol>
    <symbol xmlns="http://www.w3.org/2000/svg" viewBox="0 0 24 24" id="github">
        <path
            d="M12 0a12 12 0 0 0-3.8 23.39c.6.1.8-.26.8-.58v-2.23c-3.34.72-4.03-1.42-4.03-1.42-.55-1.39-1.34-1.76-1.34-1.76-1.09-.74.09-.72.09-.72 1.2.08 1.84 1.23 1.84 1.23 1.07 1.84 2.8 1.3 3.49 1 .1-.78.42-1.3.76-1.6-2.67-.31-5.47-1.34-5.47-5.94 0-1.3.47-2.38 1.24-3.22-.13-.3-.54-1.52.12-3.17 0 0 1-.33 3.3 1.23a11.5 11.5 0 0 1 6 0c2.3-1.56 3.3-1.23 3.3-1.23.66 1.65.25 2.87.12 3.17a4.63 4.63 0 0 1 1.24 3.22c0 4.61-2.81 5.63-5.48 5.92.43.38.82 1.1.82 2.23v3.29c0 .32.2.7.8.58A12 12 0 0 0 12 0z" />
    </symbol>
    <symbol xmlns="http://www.w3.org/2000/svg" viewBox="0 0 24 24" id="linkedin">
        <path
            d="M4.98 3.5C4.98 4.88 3.87 6 2.5 6S.02 4.88.02 3.5 1.13 1 2.5 1s2.48 1.12 2.48 2.5zM5 8H0v16h5V8zm7.98 0H8.01v16h4.97v-8.4c0-4.67 6.03-5.05 6.03 0V24H24V13.87c0-7.88-8.92-7.6-11.02-3.71V8z" />
    </symbol>
    <symbol xmlns="http://www.w3.org/2000/svg" viewBox="0 0 24 24" id="new-tab">
        <path
            d="M2.86 23.96q-1.17 0-2.01-.85-.85-.84-.85-2V2.88Q0 1.7.85.85q.84-.85 2-.85h8.4v2.89h-8.4V21.1h18.22v-8.38h2.89v8.38q0 1.17-.85 2.01-.86.85-2.04.85H2.86zm6.78-7.63-1.98-2.01L19.1 2.89h-5.96V0h10.83v10.83h-2.89V4.9L9.64 16.33z" />
    </symbol>
    <symbol xmlns="http://www.w3.org/2000/svg" viewBox="0 0 24 19.25" id="mail">
        <path
            d="M2.4 19.2q-.98 0-1.69-.7t-.7-1.7V2.4Q0 1.43.7.72t1.7-.7h19.2q.98 0 1.69.7t.7 1.7v14.4q0 .98-.7 1.69t-1.7.7H2.4zm9.6-8.4-9.6-6v12h19.2v-12l-9.6 6zm0-2.4 9.6-6H2.4l9.6 6zM2.4 4.8V2.4v14.4-12z" />
    </symbol>
</svg>